#!OML:ASF \\sashay\E\Suitcase\Project 1\Capture day 1\Session 1\Male1.ASF
:FULLY-SPECIFIED
:DEGREES
570
root 0.634716 17.3988 6.93586 4.1986 5.83137 -4.21634
lowerback 3.91299 -1.75362 1.82961
upperback 0.90294 -2.19753 4.41404
thorax -1.16014 -1.10072 3.62531
lowerneck -11.5468 -2.07214 -6.60238
upperneck 14.3053 -2.16637 3.411
head 6.35834 -1.13061 1.98006
rclavicle -2.78299e-014 2.8625e-014
rhumerus -61.6858 -33.8913 -36.8504
rradius 11.017
rwrist 22.6226
rhand -10.1719 13.8539
rfingers 7.12502
rthumb 15.8181 -15.5198
lclavicle -2.78299e-014 2.8625e-014
lhumerus -37.7062 3.72588 84.2178
lradius 31.3466
lwrist -10.6622
lhand 0.459766 43.4797
lfingers 7.12502
lthumb 26.0307 71.7164
rfemur -12.6809 3.01139 29.9567
rtibia 19.078
rfoot -8.77918 -9.32013
rtoes 17.7741
lfemur -15.0143 -0.336926 -12.8234
ltibia 64.4174
lfoot 0.523513 -15.1872
ltoes -13.9505
571
root 0.636032 17.3944 7.05503 4.00077 5.5154 -4.08391
lowerback 3.76365 -1.65098 1.78176
upperback 1.25874 -2.08698 4.37141
thorax -0.715879 -1.04789 3.58958
lowerneck -11.5893 -1.88867 -6.83014
upperneck 13.9983 -2.30588 6.13433
head 6.30287 -0.990879 2.88097
rclavicle 2.36554e-014 -1.66979e-014
rhumerus -61.4321 -34.9339 -36.2271
rradius 10.6689
rwrist 24.1431
rhand -10.6891 13.2716
rfingers 7.12502
rthumb 15.3199 -16.141
lclavicle 2.36554e-014 -1.66979e-014
lhumerus -37.3136 4.23168 84.1184
lradius 31.6424
lwrist -10.1922
lhand -0.0962149 43.1983
lfingers 7.12502
lthumb 25.4982 71.5123
rfemur -11.8969 2.92371 29.9282
rtibia 19.106
rfoot -9.30586 -9.09985
rtoes 18.4305
lfemur -15.8779 -0.202473 -13.0666
ltibia 65.1432
lfoot -1.14891 -14.3043
ltoes -20.8288
572
root 0.611219 17.3858 7.1744 3.84161 4.92795 -4.25399
lowerback 3.7315 -1.46818 1.51022
upperback 1.37454 -1.85967 4.48192
thorax -0.577475 -0.936253 3.84483
lowerneck -11.8211 -1.84614 -5.92865
upperneck 14.1816 -2.08679 4.16798
head 6.35928 -0.991322 2.1185
rclavicle 1.13307e-014 1.59028e-015
rhumerus -61.612 -35.3925 -35.9061
rradius 10.8413
rwrist 24.8948
rhand -10.7152 12.9565
rfingers 7.12502
rthumb 15.2949 -16.458
lclavicle 1.13307e-014 1.59028e-015
lhumerus -37.4833 4.64061 83.9714
lradius 32.2524
lwrist -9.33959
lhand -0.793963 43.4081
lfingers 7.12502
lthumb 24.8297 71.8159
rfemur -11.324 3.86322 30.2488
rtibia 19.0858
rfoot -9.5023 -9.42005
rtoes 18.0399
lfemur -16.8342 0.445038 -12.7468
ltibia 65.7991
lfoot -2.80249 -13.589
ltoes -19.2409
573
root 0.615464 17.3767 7.28832 3.84679 4.364 -4.3094
lowerback 3.72812 -1.0963 1.73503
upperback 1.18409 -1.34717 4.41232
thorax -0.806975 -0.677323 3.62754
lowerneck -11.3541 -2.12775 -6.90486
upperneck 14.1146 -2.31666 4.15004
head 6.28309 -1.16062 2.25393
rclavicle -1.30204e-014 -1.35174e-014
rhumerus -60.7922 -34.126 -37.9232
rradius 11.012
rwrist 22.743
rhand -10.9355 12.8608
rfingers 7.12502
rthumb 15.0826 -16.5697
lclavicle -1.30204e-014 -1.35174e-014
lhumerus -37.8317 4.35389 84.0712
lradius 32.5865
lwrist -8.1273
lhand -0.749929 43.6266
lfingers 7.12502
lthumb 24.8719 72.0286
rfemur -10.9134 4.58355 30.3457
rtibia 19.3035
rfoot -10.0842 -9.60574
rtoes 19.2525
lfemur -17.8422 0.744832 -12.8154
ltibia 66.2828
lfoot -4.12671 -12.3222
ltoes -19.7124
574
root 0.627139 17.3679 7.39602 3.67115 4.18041 -4.39525
lowerback 3.96407 -1.10637 2.08771
upperback 1.30496 -1.34206 4.36825
thorax -0.824079 -0.674664 3.38673
lowerneck -11.7166 -1.88037 -6.82332
upperneck 14.0781 -1.92986 3.90787
head 6.30865 -0.984532 2.19563
rclavicle 8.94531e-015 -6.20208e-014
rhumerus -60.7437 -34.7749 -37.4436
rradius 10.7814
rwrist 24.2222
rhand -11.1973 12.6024
rfingers 7.12502
rthumb 14.8305 -16.8469
lclavicle 8.94531e-015 -6.20208e-014
lhumerus -37.8352 4.58145 83.9638
lradius 33.2418
lwrist -6.97594
lhand -0.410225 43.4107
lfingers 7.12502
lthumb 25.1974 71.7673
rfemur -10.3421 4.05864 30.4908
rtibia 19.3992
rfoot -10.4551 -9.00536
rtoes 18.6599
lfemur -18.6982 0.658447 -12.8382
ltibia 66.6474
lfoot -5.67555 -10.9958
ltoes -19.9145
575
root 0.619227 17.3453 7.49687 3.51676 3.77506 -4.27982
lowerback 4.38652 -0.97428 1.81582
upperback 1.12571 -1.14911 4.33633
thorax -1.24857 -0.576957 3.5097
lowerneck -11.3626 -1.9081 -6.77951
upperneck 14.5007 -1.98669 3.78002
head 6.3839 -1.02719 2.14604
rclavicle -1.27222e-014 -6.36111e-015
rhumerus -60.2755 -34.2359 -38.4146
rradius 11.0299
rwrist 23.5858
rhand -11.3078 12.3674
rfingers 7.12502
rthumb 14.7239 -17.0897
lclavicle -1.27222e-014 -6.36111e-015
lhumerus -38.276 4.6722 83.9465
lradius 33.6047
lwrist -5.71767
lhand -1.91833 43.2483
lfingers 7.12502
lthumb 23.7517 71.8004
rfemur -9.80935 4.24095 30.5525
rtibia 19.5852
rfoot -10.7309 -9.07197
rtoes 16.7491
lfemur -19.6481 0.889746 -13.0116
ltibia 66.9133
lfoot -7.13137 -9.68357
ltoes -19.8029
576
root 0.611175 17.3298 7.61688 3.34882 3.18886 -4.90306
lowerback 4.17936 -0.73468 2.38786
upperback 1.35174 -0.825062 4.45672
thorax -0.921635 -0.416091 3.28916
lowerneck -11.4189 -1.91949 -6.82073
upperneck 14.501 -1.98213 3.72869
head 6.39367 -1.03078 2.13643
rclavicle -7.45443e-015 1.03368e-014
rhumerus -60.4214 -35.1981 -37.6978
rradius 10.7795
rwrist 24.6931
rhand -11.5926 12.1194
rfingers 7.12502
rthumb 14.4496 -17.3575
lclavicle -7.45443e-015 1.03368e-014
lhumerus -38.3747 4.66693 83.9272
lradius 34.4714
lwrist -4.74618
lhand -1.65595 43.8909
lfingers 7.12502
lthumb 24.0033 72.4101
rfemur -9.31693 4.72287 31.358
rtibia 19.8795
rfoot -11.0511 -9.09021
rtoes 15.7299
lfemur -20.4598 1.32354 -12.294
ltibia 67.0433
lfoot -9.29363 -8.70321
ltoes -20.9644
577
root 0.621216 17.3092 7.72441 3.18848 2.97426 -4.81722
lowerback 3.77264 -0.689609 2.44739
upperback 1.89994 -0.813538 4.45195
thorax -0.131369 -0.410326 3.23883
lowerneck -12.172 -2.06356 -7.01682
upperneck 14.0988 -2.10797 3.89091
head 6.4062 -1.07804 2.20364
rclavicle -1.07344e-014 -8.74653e-015
rhumerus -58.9686 -35.4538 -39.1162
rradius 10.7762
rwrist 24.6309
rhand -12.4722 12.8151
rfingers 7.12502
rthumb 13.6019 -16.7205
lclavicle -1.07344e-014 -8.74653e-015
lhumerus -37.5347 5.00786 84.0467
lradius 34.6428
lwrist -3.81877
lhand -2.86809 42.7855
lfingers 7.12502
lthumb 22.8406 71.453
rfemur -8.90372 4.73176 31.2898
rtibia 20.2816
rfoot -11.7803 -8.93974
rtoes 16.4192
lfemur -21.2347 1.29231 -12.5631
ltibia 66.9784
lfoot -10.1704 -7.2731
ltoes -21.0563
578
root 0.626114 17.2959 7.82724 3.21006 2.66635 -4.53333
lowerback 4.19659 -0.634658 2.30352
upperback 1.51719 -0.705279 4.26644
thorax -0.767323 -0.356262 3.13178
lowerneck -11.7297 -1.96089 -6.74862
upperneck 14.2154 -2.02668 3.73542
head 6.35793 -1.04233 2.11978
rclavicle 9.83984e-015 -1.27222e-014
rhumerus -59.9055 -36.1962 -37.5949
rradius 10.6397
rwrist 26.2916
rhand -12.4603 11.8567
rfingers 7.12502
rthumb 13.6134 -17.6782
lclavicle 9.83984e-015 -1.27222e-014
lhumerus -38.3012 4.91292 83.9241
lradius 35.3433
lwrist -2.91162
lhand -2.51164 43.4098
lfingers 7.12502
lthumb 23.1826 72.0347
rfemur -8.64634 4.86456 31.0101
rtibia 20.597
rfoot -12.1297 -8.93833
rtoes 15.9719
lfemur -22.2277 1.12014 -13.0771
ltibia 66.8057
lfoot -10.912 -5.83353
ltoes -20.5545
579
root 0.619771 17.2842 7.93987 3.15054 2.16539 -4.53221
lowerback 4.41275 -0.362603 2.30489
upperback 1.43181 -0.328439 4.18364
thorax -0.990744 -0.167771 3.02946
lowerneck -11.9508 -2.13524 -7.02706
upperneck 14.1238 -2.27997 4.2579
head 6.38929 -1.13453 2.30903
rclavicle -9.24349e-015 5.56597e-015
rhumerus -59.0213 -35.4765 -39.3782
rradius 10.7874
rwrist 24.6779
rhand -12.976 11.6725
rfingers 7.12502
rthumb 13.1163 -17.895
lclavicle -9.24349e-015 5.56597e-015
lhumerus -38.4948 4.7831 83.8917
lradius 35.6383
lwrist -2.37959
lhand -2.9636 42.5912
lfingers 7.12502
lthumb 22.7489 71.27
rfemur -8.38228 5.44937 31.0963
rtibia 21.1464
rfoot -12.9548 -8.99427
rtoes 16.397
lfemur -23.0481 1.33427 -13.1087
ltibia 66.4775
lfoot -12.3187 -4.78729
ltoes -22.1754
580
root 0.618494 17.2464 8.01443 3.06429 1.90744 -5.48148
lowerback 4.68917 -0.321787 3.22168
upperback 1.48975 -0.216451 4.47479
thorax -1.09135 -0.112166 2.81264
lowerneck -11.6776 -1.88625 -6.92874
upperneck 14.2754 -1.9355 3.97575
head 6.36674 -0.989637 2.2356
rclavicle -1.05356e-014 -3.65764e-014
rhumerus -57.8402 -35.3609 -40.4388
rradius 10.5822
rwrist 24.7882
rhand -12.5415 11.4449
rfingers 7.12502
rthumb 13.5351 -18.0952
lclavicle -1.05356e-014 -3.65764e-014
lhumerus -38.4214 4.97173 83.9758
lradius 36.2766
lwrist -1.67718
lhand -2.80668 43.3056
lfingers 7.12502
lthumb 22.8995 71.9658
rfemur -8.25928 6.13695 32.2152
rtibia 21.6094
rfoot -13.3904 -9.33616
rtoes 17.3923
lfemur -24.197 1.39369 -12.0414
ltibia 66.2624
lfoot -12.4934 -4.01301
ltoes -19.4151
581
root 0.63097 17.2324 8.13415 2.94346 1.58941 -5.14209
lowerback 4.65159 -0.265063 3.10581
upperback 1.54028 -0.153886 4.31466
thorax -1.02017 -0.0804453 2.7074
lowerneck -11.8303 -1.6451 -7.07943
upperneck 14.8522 -1.57385 3.95341
head 6.55764 -0.829423 2.28973
rclavicle 1.09332e-015 -2.46493e-014
rhumerus -58.2237 -36.2581 -39.5571
rradius 10.7381
rwrist 26.2829
rhand -12.5525 10.8727
rfingers 7.12502
rthumb 13.5246 -18.6681
lclavicle 1.09332e-015 -2.46493e-014
lhumerus -38.6698 5.45595 83.8256
lradius 36.9621
lwrist -1.74073
lhand -3.21557 42.3646
lfingers 7.12502
lthumb 22.5071 71.0729
rfemur -7.83165 5.80104 31.8471
rtibia 22.026
rfoot -14.1625 -9.03134
rtoes 17.6703
lfemur -24.7194 1.12477 -12.6579
ltibia 65.6212
lfoot -12.443 -2.77292
ltoes -19.5147
582
root 0.618014 17.1933 8.21487 2.95453 0.997882 -5.7794
lowerback 4.75843 0.00762743 3.53142
upperback 1.63709 0.232062 4.48835
thorax -0.988166 0.112759 2.62779
lowerneck -11.9934 -1.69472 -6.93146
upperneck 14.8596 -1.60299 3.63012
head 6.58702 -0.860498 2.15768
rclavicle 1.09332e-014 7.95139e-016
rhumerus -57.0762 -35.9963 -41.1336
rradius 10.7497
rwrist 25.5035
rhand -12.851 12.0556
rfingers 7.12502
rthumb 13.2368 -17.5041
lclavicle 1.09332e-014 7.95139e-016
lhumerus -38.5024 4.96838 84.0797
lradius 37.4125
lwrist -0.990021
lhand -3.66091 43.1696
lfingers 7.12502
lthumb 22.0795 71.9291
rfemur -7.63439 6.76444 32.7387
rtibia 22.3258
rfoot -14.229 -9.53387
rtoes 15.7828
lfemur -25.8637 1.57861 -11.9202
ltibia 65.2127
lfoot -12.9606 -2.27417
ltoes -18.3199
583
root 0.637638 17.1962 8.3398 2.90824 0.936597 -5.24404
lowerback 5.40379 -0.0447561 3.2017
upperback 1.05738 0.21914 4.39882
thorax -1.94771 0.100204 2.72414
lowerneck -11.2729 -1.69118 -6.9795
upperneck 15.4244 -1.6315 3.52563
head 6.64448 -0.898244 2.13506
rclavicle -6.85807e-015 -1.59028e-015
rhumerus -56.5867 -34.621 -42.0786
rradius 10.8468
rwrist 24.4473
rhand -12.4081 11.1994
rfingers 7.12502
rthumb 13.6637 -18.3321
lclavicle -6.85807e-015 -1.59028e-015
lhumerus -39.6658 4.98458 84.1998
lradius 38.0918
lwrist -0.90921
lhand -2.74696 43.1288
lfingers 7.12502
lthumb 22.9568 71.7819
rfemur -7.17396 6.05326 32.0623
rtibia 22.5756
rfoot -15.0594 -8.91042
rtoes 16.0711
lfemur -26.3328 1.18326 -12.827
ltibia 64.2907
lfoot -13.7623 -1.16399
ltoes -18.1619
584
root 0.637924 17.162 8.41749 2.90331 0.612619 -6.12608
lowerback 5.2877 0.0281493 4.13992
upperback 1.3357 0.346552 4.57126
thorax -1.59374 0.16315 2.36746
lowerneck -11.8093 -1.73852 -7.2245
upperneck 14.9466 -1.67771 3.95742
head 6.59199 -0.888616 2.30599
rclavicle -5.86415e-015 -1.74931e-014
rhumerus -56.0478 -35.8736 -41.7621
rradius 10.5663
rwrist 25.9256
rhand -12.3218 11.5442
rfingers 7.12502
rthumb 13.7469 -17.9817
lclavicle -5.86415e-015 -1.74931e-014
lhumerus -38.9977 5.14978 84.2089
lradius 37.9396
lwrist -0.973395
lhand -2.84551 42.6824
lfingers 7.12502
lthumb 22.8622 71.3473
rfemur -6.97178 6.6111 33.1318
rtibia 22.7545
rfoot -15.0928 -9.19818
rtoes 15.2475
lfemur -27.4017 1.07255 -11.826
ltibia 63.5276
lfoot -14.1721 -0.918226
ltoes -20.6315
